# xmcd
#
# Track frame offsets:
#	150
#	12046
#	22334
#	35568
#	46935
#	59905
#	71660
#	83090
#	97139
#	106902
#	117182
#	129933
#	138706
#	150988
#	164046
#	176322
#	188197
#	199872
#	213957
#	226016
#	240093
#	252603
#	263298
#	275243
#	289032
#	299408
#	312605
#
# Disc length: 4299 seconds
#
# Revision: 0
# Processed by: cddbd v1.4PL0 Copyright (c) Steve Scherf et al.
# Submitted via: EasyCDDAExtractor 4.6.9.1
#
DISCID=8e10c91b
DTITLE=Little Jimmy Dickens - Out Behind The Barn - Disc 2
DYEAR=2002
DGENRE=Country
TTITLE0=Careless Darlin'
TTITLE1=Fire Ball Mail
TTITLE2=I Cried Again
TTITLE3=Tomorrow Never Comes
TTITLE4=John Henry
TTITLE5=Have I Told You Lately That I Love You
TTITLE6=Tomorrow's Just Another Day To Cry
TTITLE7=A Petal From A Faded Rose
TTITLE8=Singing Waterfall
TTITLE9=Pins And Needles (In My Heart)
TTITLE10=My Heart's Bouquet
TTITLE11=Talking To The Wall
TTITLE12=Eight More Miles
TTITLE13=Farewell Party
TTITLE14=Twenty Cigarettes
TTITLE15=It's Me That Hurts The Most
TTITLE16=Honky Tonk Troubles
TTITLE17=The Whole World Seems Different
TTITLE18=String, Eraser And Blotter
TTITLE19=Before I Met You
TTITLE20=The Best Years Of Your Life
TTITLE21=Slowly
TTITLE22=Out Behind The Barn
TTITLE23=I'm Making Love To A Stranger
TTITLE24=Night Train To Memphis
TTITLE25=The Violet And Rose
TTITLE26=Out Behind The Barn-1961
EXTD=
EXTT0=
EXTT1=
EXTT2=
EXTT3=
EXTT4=
EXTT5=
EXTT6=
EXTT7=
EXTT8=
EXTT9=
EXTT10=
EXTT11=
EXTT12=
EXTT13=
EXTT14=
EXTT15=
EXTT16=
EXTT17=
EXTT18=
EXTT19=
EXTT20=
EXTT21=
EXTT22=
EXTT23=
EXTT24=
EXTT25=
EXTT26=
PLAYORDER=
